<svg xmlns="http://www.w3.org/2000/svg" xmlns:xlink="http://www.w3.org/1999/xlink" width="1200" zoomAndPan="magnify" viewBox="0 0 900 225" height="300" preserveAspectRatio="xMidYMid meet" version="1.0"><defs><g/><clipPath id="f3ce58b63c"><path d="M 85.515625 1 L 310 1 L 310 224.875 L 85.515625 224.875 Z M 85.515625 1 " clip-rule="nonzero"/></clipPath><clipPath id="d32fdba31c"><path d="M 85.515625 70 L 168 70 L 168 224.875 L 85.515625 224.875 Z M 85.515625 70 " clip-rule="nonzero"/></clipPath><clipPath id="cbe30fd94d"><rect x="0" width="500" y="0" height="87"/></clipPath></defs><path fill="#ff751f" d="M 90.226562 5.40625 L 305.546875 220.703125 " fill-opacity="1" fill-rule="nonzero"/><g clip-path="url(#f3ce58b63c)"><path fill="#ff751f" d="M 305.546875 224.984375 C 304.449219 224.984375 303.351562 224.566406 302.515625 223.730469 L 87.195312 8.433594 C 85.523438 6.761719 85.523438 4.046875 87.195312 2.371094 C 88.867188 0.699219 91.578125 0.699219 93.253906 2.371094 L 308.578125 217.671875 C 310.25 219.34375 310.25 222.054688 308.578125 223.726562 C 307.742188 224.566406 306.644531 224.984375 305.546875 224.984375 Z M 305.546875 224.984375 " fill-opacity="1" fill-rule="nonzero"/></g><g clip-path="url(#d32fdba31c)"><path fill="#ff751f" d="M 90.226562 224.984375 C 90.222656 224.984375 90.222656 224.984375 90.226562 224.984375 C 87.855469 224.984375 85.941406 223.066406 85.941406 220.699219 L 85.984375 76.816406 C 85.984375 74.34375 87.464844 72.132812 89.753906 71.183594 C 92.035156 70.234375 94.648438 70.753906 96.398438 72.503906 L 166.089844 141.605469 C 167.765625 143.273438 167.78125 145.984375 166.113281 147.664062 C 164.449219 149.347656 161.734375 149.359375 160.050781 147.691406 L 94.550781 82.746094 L 94.511719 220.699219 C 94.511719 223.070312 92.589844 224.984375 90.226562 224.984375 Z M 90.347656 78.578125 C 90.351562 78.582031 90.359375 78.585938 90.363281 78.589844 Z M 90.347656 78.578125 " fill-opacity="1" fill-rule="nonzero"/></g><path fill="#ff751f" d="M 305.546875 148.9375 C 303.179688 148.9375 301.261719 147.019531 301.257812 144.652344 L 301.214844 13.132812 L 227.148438 86.640625 C 225.472656 88.308594 222.757812 88.296875 221.089844 86.617188 C 219.421875 84.941406 219.433594 82.226562 221.113281 80.5625 L 299.386719 2.871094 C 301.128906 1.132812 303.734375 0.617188 306.019531 1.5625 C 308.308594 2.507812 309.785156 4.71875 309.785156 7.195312 L 309.832031 144.648438 C 309.832031 147.015625 307.914062 148.933594 305.546875 148.9375 Z M 305.4375 8.941406 L 305.421875 8.953125 C 305.429688 8.949219 305.433594 8.949219 305.4375 8.941406 Z M 305.4375 8.941406 " fill-opacity="1" fill-rule="nonzero"/><g transform="matrix(1, 0, 0, 1, 295, 131)"><g clip-path="url(#cbe30fd94d)"><g fill="#ffffff" fill-opacity="1"><g transform="translate(0.415779, 69.131319)"><g><path d="M 27.375 -51.40625 L 50.296875 -1.640625 C 50.492188 -1.148438 50.5 -0.753906 50.3125 -0.453125 C 50.125 -0.148438 49.769531 0 49.25 0 L 39.390625 0 C 38.609375 0 38.082031 -0.359375 37.8125 -1.078125 L 35.53125 -6.765625 L 15.796875 -6.765625 L 13.515625 -1.078125 C 13.253906 -0.359375 12.734375 0 11.953125 0 L 2.078125 0 C 1.585938 0 1.238281 -0.148438 1.03125 -0.453125 C 0.832031 -0.753906 0.847656 -1.148438 1.078125 -1.640625 L 24 -51.40625 C 24.4375 -52.382812 24.988281 -52.875 25.65625 -52.875 C 26.332031 -52.875 26.90625 -52.382812 27.375 -51.40625 Z M 25.671875 -31.59375 L 19.375 -15.765625 L 31.984375 -15.765625 Z M 25.671875 -31.59375 "/></g></g></g><g fill="#ffffff" fill-opacity="1"><g transform="translate(106.646045, 69.131319)"><g><path d="M 30.515625 1.3125 C 26.453125 1.3125 22.738281 0.675781 19.375 -0.59375 C 16.007812 -1.875 13.101562 -3.703125 10.65625 -6.078125 C 8.21875 -8.453125 6.328125 -11.296875 4.984375 -14.609375 C 3.648438 -17.921875 2.984375 -21.617188 2.984375 -25.703125 C 2.984375 -29.785156 3.648438 -33.484375 4.984375 -36.796875 C 6.328125 -40.109375 8.21875 -42.953125 10.65625 -45.328125 C 13.101562 -47.703125 16.007812 -49.523438 19.375 -50.796875 C 22.738281 -52.066406 26.453125 -52.703125 30.515625 -52.703125 C 35.046875 -52.703125 39.140625 -51.898438 42.796875 -50.296875 C 46.453125 -48.691406 49.5 -46.460938 51.9375 -43.609375 C 52.539062 -42.929688 52.460938 -42.316406 51.703125 -41.765625 L 44.34375 -36.734375 C 43.644531 -36.242188 43.019531 -36.335938 42.46875 -37.015625 C 41.039062 -38.578125 39.3125 -39.800781 37.28125 -40.6875 C 35.25 -41.582031 32.992188 -42.03125 30.515625 -42.03125 C 28.191406 -42.03125 26.066406 -41.648438 24.140625 -40.890625 C 22.210938 -40.128906 20.539062 -39.035156 19.125 -37.609375 C 17.707031 -36.179688 16.613281 -34.460938 15.84375 -32.453125 C 15.070312 -30.453125 14.6875 -28.203125 14.6875 -25.703125 C 14.6875 -23.128906 15.078125 -20.804688 15.859375 -18.734375 C 16.640625 -16.660156 17.734375 -14.882812 19.140625 -13.40625 C 20.546875 -11.9375 22.21875 -10.804688 24.15625 -10.015625 C 26.101562 -9.222656 28.222656 -8.828125 30.515625 -8.828125 C 32.898438 -8.828125 35.070312 -9.242188 37.03125 -10.078125 C 39 -10.921875 40.675781 -12.085938 42.0625 -13.578125 L 42.0625 -17.328125 L 32.03125 -17.328125 C 31.113281 -17.328125 30.65625 -17.785156 30.65625 -18.703125 L 30.65625 -25.53125 C 30.65625 -26.445312 31.113281 -26.90625 32.03125 -26.90625 L 51.40625 -26.90625 C 52.3125 -26.90625 52.765625 -26.445312 52.765625 -25.53125 L 52.765625 -9.765625 C 52.765625 -9.140625 52.597656 -8.628906 52.265625 -8.234375 C 49.898438 -5.203125 46.847656 -2.851562 43.109375 -1.1875 C 39.378906 0.476562 35.179688 1.3125 30.515625 1.3125 Z M 30.515625 1.3125 "/></g></g></g><g fill="#ffffff" fill-opacity="1"><g transform="translate(217.962857, 69.131319)"><g><path d="M 15.390625 0 L 6.453125 0 C 5.546875 0 5.09375 -0.457031 5.09375 -1.375 L 5.09375 -50.03125 C 5.09375 -50.945312 5.546875 -51.40625 6.453125 -51.40625 L 15.390625 -51.40625 C 16.304688 -51.40625 16.765625 -50.945312 16.765625 -50.03125 L 16.765625 -1.375 C 16.765625 -0.457031 16.304688 0 15.390625 0 Z M 15.390625 0 "/></g></g></g><g fill="#ffffff" fill-opacity="1"><g transform="translate(294.644285, 69.131319)"><g><path d="M 15.125 0 L 6.53125 0 C 5.613281 0 5.15625 -0.457031 5.15625 -1.375 L 5.15625 -50.234375 C 5.15625 -51.410156 5.484375 -52.160156 6.140625 -52.484375 C 6.796875 -52.804688 7.582031 -52.535156 8.5 -51.671875 L 37.546875 -22.71875 L 37.546875 -50.03125 C 37.546875 -50.945312 38.003906 -51.40625 38.921875 -51.40625 L 47.515625 -51.40625 C 48.429688 -51.40625 48.890625 -50.945312 48.890625 -50.03125 L 48.890625 -1.203125 C 48.890625 -0.421875 48.722656 0.171875 48.390625 0.578125 C 48.054688 0.992188 47.613281 1.160156 47.0625 1.078125 C 46.519531 1.003906 45.910156 0.644531 45.234375 0 L 16.46875 -29.34375 L 16.46875 -1.375 C 16.46875 -0.457031 16.019531 0 15.125 0 Z M 15.125 0 "/></g></g></g><g fill="#ffffff" fill-opacity="1"><g transform="translate(403.518229, 69.131319)"><g><path d="M 15.390625 0 L 6.453125 0 C 5.546875 0 5.09375 -0.457031 5.09375 -1.375 L 5.09375 -50.03125 C 5.09375 -50.945312 5.546875 -51.40625 6.453125 -51.40625 L 36.4375 -51.40625 C 37.351562 -51.40625 37.8125 -50.945312 37.8125 -50.03125 L 37.8125 -42.671875 C 37.8125 -41.753906 37.351562 -41.296875 36.4375 -41.296875 L 16.765625 -41.296875 L 16.765625 -26.90625 L 33.5625 -26.90625 C 34.476562 -26.90625 34.9375 -26.445312 34.9375 -25.53125 L 34.9375 -18.703125 C 34.9375 -17.785156 34.476562 -17.328125 33.5625 -17.328125 L 16.765625 -17.328125 L 16.765625 -1.375 C 16.765625 -0.457031 16.304688 0 15.390625 0 Z M 15.390625 0 "/></g></g></g></g></g></svg>
