<svg xmlns="http://www.w3.org/2000/svg" xmlns:xlink="http://www.w3.org/1999/xlink" width="400" zoomAndPan="magnify" viewBox="0 0 300 74.999997" height="100" preserveAspectRatio="xMidYMid meet" version="1.0"><defs><g/><clipPath id="dad8a98638"><path d="M 3.222656 2 L 75 2 L 75 73.195312 L 3.222656 73.195312 Z M 3.222656 2 " clip-rule="nonzero"/></clipPath><clipPath id="b18f63a0d9"><path d="M 3.222656 24 L 30 24 L 30 73.195312 L 3.222656 73.195312 Z M 3.222656 24 " clip-rule="nonzero"/></clipPath><clipPath id="daf357d96f"><rect x="0" width="214" y="0" height="31"/></clipPath><clipPath id="84ac0f2de9"><rect x="0" width="160" y="0" height="15"/></clipPath></defs><path fill="#ffffff" d="M 4.730469 3.46875 L 73.449219 72.179688 " fill-opacity="1" fill-rule="nonzero"/><g clip-path="url(#dad8a98638)"><path fill="#ffffff" d="M 73.449219 73.546875 C 73.097656 73.546875 72.75 73.414062 72.480469 73.144531 L 3.761719 4.433594 C 3.226562 3.902344 3.226562 3.035156 3.761719 2.5 C 4.296875 1.964844 5.160156 1.964844 5.695312 2.5 L 74.414062 71.210938 C 74.949219 71.746094 74.949219 72.613281 74.414062 73.144531 C 74.148438 73.414062 73.796875 73.546875 73.449219 73.546875 Z M 73.449219 73.546875 " fill-opacity="1" fill-rule="nonzero"/></g><g clip-path="url(#b18f63a0d9)"><path fill="#ffffff" d="M 4.730469 73.546875 C 4.726562 73.546875 4.726562 73.546875 4.730469 73.546875 C 3.972656 73.546875 3.363281 72.933594 3.363281 72.179688 L 3.375 26.257812 C 3.375 25.46875 3.847656 24.765625 4.578125 24.460938 C 5.308594 24.15625 6.140625 24.324219 6.699219 24.882812 L 28.941406 46.9375 C 29.476562 47.46875 29.480469 48.332031 28.949219 48.871094 C 28.417969 49.40625 27.550781 49.410156 27.015625 48.878906 L 6.109375 28.152344 L 6.097656 72.179688 C 6.097656 72.933594 5.484375 73.546875 4.730469 73.546875 Z M 4.769531 26.820312 C 4.769531 26.820312 4.769531 26.824219 4.773438 26.824219 Z M 4.769531 26.820312 " fill-opacity="1" fill-rule="nonzero"/></g><path fill="#ffffff" d="M 73.449219 49.277344 C 72.691406 49.277344 72.082031 48.664062 72.078125 47.910156 L 72.066406 5.933594 L 48.425781 29.394531 C 47.894531 29.925781 47.027344 29.921875 46.496094 29.386719 C 45.960938 28.851562 45.964844 27.984375 46.5 27.453125 L 71.484375 2.660156 C 72.039062 2.105469 72.871094 1.9375 73.597656 2.242188 C 74.328125 2.542969 74.800781 3.25 74.800781 4.039062 L 74.816406 47.90625 C 74.816406 48.664062 74.203125 49.273438 73.449219 49.277344 Z M 73.414062 4.597656 L 73.410156 4.601562 C 73.410156 4.601562 73.410156 4.597656 73.414062 4.597656 Z M 73.414062 4.597656 " fill-opacity="1" fill-rule="nonzero"/><g transform="matrix(1, 0, 0, 1, 86, 23)"><g clip-path="url(#daf357d96f)"><g fill="#ffffff" fill-opacity="1"><g transform="translate(1.126771, 24.102022)"><g><path d="M 5.265625 0 L 2.265625 0 C 1.941406 0 1.78125 -0.15625 1.78125 -0.46875 L 1.78125 -17.40625 C 1.78125 -17.695312 1.835938 -17.914062 1.953125 -18.0625 C 2.066406 -18.207031 2.210938 -18.257812 2.390625 -18.21875 C 2.578125 -18.175781 2.757812 -18.035156 2.9375 -17.796875 L 10.5625 -7.96875 L 18.234375 -17.796875 C 18.421875 -18.035156 18.601562 -18.171875 18.78125 -18.203125 C 18.957031 -18.242188 19.101562 -18.191406 19.21875 -18.046875 C 19.34375 -17.910156 19.40625 -17.695312 19.40625 -17.40625 L 19.40625 -0.46875 C 19.40625 -0.15625 19.242188 0 18.921875 0 L 15.90625 0 C 15.59375 0 15.4375 -0.15625 15.4375 -0.46875 L 15.4375 -8.546875 L 10.90625 -2.9375 C 10.6875 -2.664062 10.46875 -2.664062 10.25 -2.9375 L 5.75 -8.5 L 5.75 -0.46875 C 5.75 -0.15625 5.585938 0 5.265625 0 Z M 5.265625 0 "/></g></g></g><g fill="#ffffff" fill-opacity="1"><g transform="translate(41.288288, 24.102022)"><g><path d="M 9.484375 -17.796875 L 17.421875 -0.5625 C 17.484375 -0.394531 17.484375 -0.257812 17.421875 -0.15625 C 17.359375 -0.0507812 17.238281 0 17.0625 0 L 13.640625 0 C 13.367188 0 13.1875 -0.125 13.09375 -0.375 L 12.3125 -2.34375 L 5.46875 -2.34375 L 4.6875 -0.375 C 4.59375 -0.125 4.410156 0 4.140625 0 L 0.71875 0 C 0.550781 0 0.429688 -0.0507812 0.359375 -0.15625 C 0.285156 -0.257812 0.289062 -0.394531 0.375 -0.5625 L 8.3125 -17.796875 C 8.46875 -18.140625 8.660156 -18.3125 8.890625 -18.3125 C 9.117188 -18.3125 9.316406 -18.140625 9.484375 -17.796875 Z M 8.890625 -10.9375 L 6.703125 -5.453125 L 11.078125 -5.453125 Z M 8.890625 -10.9375 "/></g></g></g><g fill="#ffffff" fill-opacity="1"><g transform="translate(78.066762, 24.102022)"><g><path d="M 10.5625 0.453125 C 9.15625 0.453125 7.867188 0.234375 6.703125 -0.203125 C 5.535156 -0.648438 4.53125 -1.285156 3.6875 -2.109375 C 2.84375 -2.929688 2.1875 -3.914062 1.71875 -5.0625 C 1.257812 -6.207031 1.03125 -7.488281 1.03125 -8.90625 C 1.03125 -10.3125 1.257812 -11.585938 1.71875 -12.734375 C 2.1875 -13.890625 2.84375 -14.878906 3.6875 -15.703125 C 4.53125 -16.523438 5.535156 -17.15625 6.703125 -17.59375 C 7.867188 -18.03125 9.15625 -18.25 10.5625 -18.25 C 12.132812 -18.25 13.550781 -17.96875 14.8125 -17.40625 C 16.082031 -16.851562 17.140625 -16.082031 17.984375 -15.09375 C 18.191406 -14.863281 18.164062 -14.65625 17.90625 -14.46875 L 15.359375 -12.71875 C 15.117188 -12.550781 14.898438 -12.582031 14.703125 -12.8125 C 14.210938 -13.351562 13.613281 -13.78125 12.90625 -14.09375 C 12.207031 -14.40625 11.425781 -14.5625 10.5625 -14.5625 C 9.757812 -14.5625 9.023438 -14.425781 8.359375 -14.15625 C 7.691406 -13.894531 7.113281 -13.515625 6.625 -13.015625 C 6.132812 -12.523438 5.753906 -11.929688 5.484375 -11.234375 C 5.222656 -10.546875 5.09375 -9.769531 5.09375 -8.90625 C 5.09375 -8.007812 5.226562 -7.203125 5.5 -6.484375 C 5.769531 -5.765625 6.144531 -5.148438 6.625 -4.640625 C 7.113281 -4.128906 7.691406 -3.738281 8.359375 -3.46875 C 9.035156 -3.195312 9.769531 -3.0625 10.5625 -3.0625 C 11.394531 -3.0625 12.148438 -3.203125 12.828125 -3.484375 C 13.503906 -3.773438 14.082031 -4.179688 14.5625 -4.703125 L 14.5625 -6 L 11.09375 -6 C 10.769531 -6 10.609375 -6.160156 10.609375 -6.484375 L 10.609375 -8.84375 C 10.609375 -9.15625 10.769531 -9.3125 11.09375 -9.3125 L 17.796875 -9.3125 C 18.117188 -9.3125 18.28125 -9.15625 18.28125 -8.84375 L 18.28125 -3.390625 C 18.28125 -3.171875 18.222656 -2.988281 18.109375 -2.84375 C 17.285156 -1.800781 16.222656 -0.988281 14.921875 -0.40625 C 13.628906 0.164062 12.175781 0.453125 10.5625 0.453125 Z M 10.5625 0.453125 "/></g></g></g><g fill="#ffffff" fill-opacity="1"><g transform="translate(116.606267, 24.102022)"><g><path d="M 5.328125 0 L 2.234375 0 C 1.921875 0 1.765625 -0.15625 1.765625 -0.46875 L 1.765625 -17.328125 C 1.765625 -17.640625 1.921875 -17.796875 2.234375 -17.796875 L 5.328125 -17.796875 C 5.648438 -17.796875 5.8125 -17.640625 5.8125 -17.328125 L 5.8125 -0.46875 C 5.8125 -0.15625 5.648438 0 5.328125 0 Z M 5.328125 0 "/></g></g></g><g fill="#ffffff" fill-opacity="1"><g transform="translate(143.154509, 24.102022)"><g><path d="M 5.234375 0 L 2.265625 0 C 1.941406 0 1.78125 -0.15625 1.78125 -0.46875 L 1.78125 -17.390625 C 1.78125 -17.804688 1.894531 -18.066406 2.125 -18.171875 C 2.351562 -18.285156 2.625 -18.191406 2.9375 -17.890625 L 13 -7.875 L 13 -17.328125 C 13 -17.640625 13.160156 -17.796875 13.484375 -17.796875 L 16.453125 -17.796875 C 16.773438 -17.796875 16.9375 -17.640625 16.9375 -17.328125 L 16.9375 -0.421875 C 16.9375 -0.148438 16.875 0.0546875 16.75 0.203125 C 16.632812 0.347656 16.484375 0.40625 16.296875 0.375 C 16.109375 0.351562 15.898438 0.226562 15.671875 0 L 5.703125 -10.15625 L 5.703125 -0.46875 C 5.703125 -0.15625 5.546875 0 5.234375 0 Z M 5.234375 0 "/></g></g></g><g fill="#ffffff" fill-opacity="1"><g transform="translate(180.848262, 24.102022)"><g><path d="M 5.328125 0 L 2.234375 0 C 1.921875 0 1.765625 -0.15625 1.765625 -0.46875 L 1.765625 -17.328125 C 1.765625 -17.640625 1.921875 -17.796875 2.234375 -17.796875 L 12.625 -17.796875 C 12.9375 -17.796875 13.09375 -17.640625 13.09375 -17.328125 L 13.09375 -14.78125 C 13.09375 -14.457031 12.9375 -14.296875 12.625 -14.296875 L 5.8125 -14.296875 L 5.8125 -9.3125 L 11.625 -9.3125 C 11.9375 -9.3125 12.09375 -9.15625 12.09375 -8.84375 L 12.09375 -6.484375 C 12.09375 -6.160156 11.9375 -6 11.625 -6 L 5.8125 -6 L 5.8125 -0.46875 C 5.8125 -0.15625 5.648438 0 5.328125 0 Z M 5.328125 0 "/></g></g></g></g></g><g transform="matrix(1, 0, 0, 1, 104, 51)"><g clip-path="url(#84ac0f2de9)"><g fill="#ffffff" fill-opacity="1"><g transform="translate(0.933832, 11.260207)"><g><path d="M 3.65625 0 L 2.265625 0 C 2.117188 0 2.046875 -0.0703125 2.046875 -0.21875 L 2.046875 -6.390625 L 0.390625 -6.390625 C 0.253906 -6.390625 0.1875 -6.457031 0.1875 -6.59375 L 0.1875 -7.734375 C 0.1875 -7.878906 0.253906 -7.953125 0.390625 -7.953125 L 5.53125 -7.953125 C 5.664062 -7.953125 5.734375 -7.878906 5.734375 -7.734375 L 5.734375 -6.59375 C 5.734375 -6.457031 5.664062 -6.390625 5.53125 -6.390625 L 3.875 -6.390625 L 3.875 -0.21875 C 3.875 -0.0703125 3.800781 0 3.65625 0 Z M 3.65625 0 "/></g></g></g><g fill="#ffffff" fill-opacity="1"><g transform="translate(15.338865, 11.260207)"><g><path d="M 5.640625 0 L 1 0 C 0.851562 0 0.78125 -0.0703125 0.78125 -0.21875 L 0.78125 -7.734375 C 0.78125 -7.878906 0.851562 -7.953125 1 -7.953125 L 5.640625 -7.953125 C 5.773438 -7.953125 5.84375 -7.878906 5.84375 -7.734375 L 5.84375 -6.59375 C 5.84375 -6.457031 5.773438 -6.390625 5.640625 -6.390625 L 2.59375 -6.390625 L 2.59375 -4.15625 L 5.21875 -4.15625 C 5.363281 -4.15625 5.4375 -4.085938 5.4375 -3.953125 L 5.4375 -2.890625 C 5.4375 -2.742188 5.363281 -2.671875 5.21875 -2.671875 L 2.59375 -2.671875 L 2.59375 -1.5625 L 5.640625 -1.5625 C 5.773438 -1.5625 5.84375 -1.488281 5.84375 -1.34375 L 5.84375 -0.21875 C 5.84375 -0.0703125 5.773438 0 5.640625 0 Z M 5.640625 0 "/></g></g></g><g fill="#ffffff" fill-opacity="1"><g transform="translate(30.2038, 11.260207)"><g><path d="M 4.71875 0.203125 C 4.09375 0.203125 3.519531 0.101562 3 -0.09375 C 2.476562 -0.289062 2.023438 -0.570312 1.640625 -0.9375 C 1.265625 -1.300781 0.972656 -1.738281 0.765625 -2.25 C 0.554688 -2.769531 0.453125 -3.34375 0.453125 -3.96875 C 0.453125 -4.601562 0.554688 -5.175781 0.765625 -5.6875 C 0.972656 -6.195312 1.265625 -6.632812 1.640625 -7 C 2.023438 -7.375 2.476562 -7.65625 3 -7.84375 C 3.519531 -8.039062 4.09375 -8.140625 4.71875 -8.140625 C 5.414062 -8.140625 6.046875 -8.015625 6.609375 -7.765625 C 7.179688 -7.523438 7.65625 -7.179688 8.03125 -6.734375 C 8.125 -6.640625 8.109375 -6.546875 7.984375 -6.453125 L 6.859375 -5.671875 C 6.753906 -5.597656 6.65625 -5.613281 6.5625 -5.71875 C 6.34375 -5.957031 6.078125 -6.144531 5.765625 -6.28125 C 5.453125 -6.425781 5.101562 -6.5 4.71875 -6.5 C 4.351562 -6.5 4.019531 -6.4375 3.71875 -6.3125 C 3.425781 -6.195312 3.171875 -6.03125 2.953125 -5.8125 C 2.742188 -5.59375 2.578125 -5.328125 2.453125 -5.015625 C 2.328125 -4.703125 2.265625 -4.351562 2.265625 -3.96875 C 2.265625 -3.59375 2.328125 -3.25 2.453125 -2.9375 C 2.578125 -2.625 2.742188 -2.359375 2.953125 -2.140625 C 3.171875 -1.921875 3.429688 -1.75 3.734375 -1.625 C 4.035156 -1.507812 4.363281 -1.453125 4.71875 -1.453125 C 5.101562 -1.453125 5.453125 -1.519531 5.765625 -1.65625 C 6.078125 -1.789062 6.34375 -1.976562 6.5625 -2.21875 C 6.644531 -2.320312 6.742188 -2.335938 6.859375 -2.265625 L 7.984375 -1.5 C 8.109375 -1.40625 8.128906 -1.3125 8.046875 -1.21875 C 7.671875 -0.78125 7.195312 -0.429688 6.625 -0.171875 C 6.0625 0.078125 5.425781 0.203125 4.71875 0.203125 Z M 4.71875 0.203125 "/></g></g></g><g fill="#ffffff" fill-opacity="1"><g transform="translate(47.099539, 11.260207)"><g><path d="M 2.34375 0 L 1.015625 0 C 0.867188 0 0.796875 -0.0703125 0.796875 -0.21875 L 0.796875 -7.765625 C 0.796875 -7.941406 0.847656 -8.054688 0.953125 -8.109375 C 1.054688 -8.160156 1.175781 -8.117188 1.3125 -7.984375 L 5.796875 -3.515625 L 5.796875 -7.734375 C 5.796875 -7.878906 5.867188 -7.953125 6.015625 -7.953125 L 7.34375 -7.953125 C 7.488281 -7.953125 7.5625 -7.878906 7.5625 -7.734375 L 7.5625 -0.1875 C 7.5625 -0.0625 7.535156 0.03125 7.484375 0.09375 C 7.429688 0.15625 7.363281 0.179688 7.28125 0.171875 C 7.195312 0.160156 7.101562 0.101562 7 0 L 2.546875 -4.53125 L 2.546875 -0.21875 C 2.546875 -0.0703125 2.476562 0 2.34375 0 Z M 2.34375 0 "/></g></g></g><g fill="#ffffff" fill-opacity="1"><g transform="translate(63.917766, 11.260207)"><g><path d="M 4.71875 0.203125 C 4.09375 0.203125 3.519531 0.101562 3 -0.09375 C 2.476562 -0.289062 2.023438 -0.570312 1.640625 -0.9375 C 1.265625 -1.300781 0.972656 -1.738281 0.765625 -2.25 C 0.554688 -2.769531 0.453125 -3.34375 0.453125 -3.96875 C 0.453125 -4.601562 0.554688 -5.175781 0.765625 -5.6875 C 0.972656 -6.195312 1.265625 -6.632812 1.640625 -7 C 2.023438 -7.375 2.476562 -7.65625 3 -7.84375 C 3.519531 -8.039062 4.09375 -8.140625 4.71875 -8.140625 C 5.34375 -8.140625 5.914062 -8.039062 6.4375 -7.84375 C 6.957031 -7.65625 7.40625 -7.375 7.78125 -7 C 8.164062 -6.632812 8.460938 -6.195312 8.671875 -5.6875 C 8.878906 -5.175781 8.984375 -4.601562 8.984375 -3.96875 C 8.984375 -3.34375 8.878906 -2.769531 8.671875 -2.25 C 8.460938 -1.738281 8.164062 -1.300781 7.78125 -0.9375 C 7.40625 -0.570312 6.957031 -0.289062 6.4375 -0.09375 C 5.914062 0.101562 5.34375 0.203125 4.71875 0.203125 Z M 4.71875 -1.453125 C 5.070312 -1.453125 5.398438 -1.507812 5.703125 -1.625 C 6.003906 -1.738281 6.265625 -1.90625 6.484375 -2.125 C 6.703125 -2.351562 6.867188 -2.617188 6.984375 -2.921875 C 7.109375 -3.234375 7.171875 -3.582031 7.171875 -3.96875 C 7.171875 -4.351562 7.109375 -4.703125 6.984375 -5.015625 C 6.867188 -5.328125 6.703125 -5.59375 6.484375 -5.8125 C 6.265625 -6.03125 6.003906 -6.195312 5.703125 -6.3125 C 5.398438 -6.4375 5.070312 -6.5 4.71875 -6.5 C 4.351562 -6.5 4.019531 -6.4375 3.71875 -6.3125 C 3.425781 -6.195312 3.171875 -6.03125 2.953125 -5.8125 C 2.734375 -5.59375 2.5625 -5.328125 2.4375 -5.015625 C 2.320312 -4.703125 2.265625 -4.351562 2.265625 -3.96875 C 2.265625 -3.59375 2.328125 -3.25 2.453125 -2.9375 C 2.578125 -2.625 2.742188 -2.359375 2.953125 -2.140625 C 3.171875 -1.921875 3.429688 -1.75 3.734375 -1.625 C 4.035156 -1.507812 4.363281 -1.453125 4.71875 -1.453125 Z M 4.71875 -1.453125 "/></g></g></g><g fill="#ffffff" fill-opacity="1"><g transform="translate(81.836658, 11.260207)"><g><path d="M 4.96875 0 L 1 0 C 0.851562 0 0.78125 -0.0703125 0.78125 -0.21875 L 0.78125 -7.734375 C 0.78125 -7.878906 0.851562 -7.953125 1 -7.953125 L 2.375 -7.953125 C 2.519531 -7.953125 2.59375 -7.878906 2.59375 -7.734375 L 2.59375 -1.5625 L 4.96875 -1.5625 C 5.113281 -1.5625 5.1875 -1.488281 5.1875 -1.34375 L 5.1875 -0.21875 C 5.1875 -0.0703125 5.113281 0 4.96875 0 Z M 4.96875 0 "/></g></g></g><g fill="#ffffff" fill-opacity="1"><g transform="translate(95.688775, 11.260207)"><g><path d="M 4.71875 0.203125 C 4.09375 0.203125 3.519531 0.101562 3 -0.09375 C 2.476562 -0.289062 2.023438 -0.570312 1.640625 -0.9375 C 1.265625 -1.300781 0.972656 -1.738281 0.765625 -2.25 C 0.554688 -2.769531 0.453125 -3.34375 0.453125 -3.96875 C 0.453125 -4.601562 0.554688 -5.175781 0.765625 -5.6875 C 0.972656 -6.195312 1.265625 -6.632812 1.640625 -7 C 2.023438 -7.375 2.476562 -7.65625 3 -7.84375 C 3.519531 -8.039062 4.09375 -8.140625 4.71875 -8.140625 C 5.34375 -8.140625 5.914062 -8.039062 6.4375 -7.84375 C 6.957031 -7.65625 7.40625 -7.375 7.78125 -7 C 8.164062 -6.632812 8.460938 -6.195312 8.671875 -5.6875 C 8.878906 -5.175781 8.984375 -4.601562 8.984375 -3.96875 C 8.984375 -3.34375 8.878906 -2.769531 8.671875 -2.25 C 8.460938 -1.738281 8.164062 -1.300781 7.78125 -0.9375 C 7.40625 -0.570312 6.957031 -0.289062 6.4375 -0.09375 C 5.914062 0.101562 5.34375 0.203125 4.71875 0.203125 Z M 4.71875 -1.453125 C 5.070312 -1.453125 5.398438 -1.507812 5.703125 -1.625 C 6.003906 -1.738281 6.265625 -1.90625 6.484375 -2.125 C 6.703125 -2.351562 6.867188 -2.617188 6.984375 -2.921875 C 7.109375 -3.234375 7.171875 -3.582031 7.171875 -3.96875 C 7.171875 -4.351562 7.109375 -4.703125 6.984375 -5.015625 C 6.867188 -5.328125 6.703125 -5.59375 6.484375 -5.8125 C 6.265625 -6.03125 6.003906 -6.195312 5.703125 -6.3125 C 5.398438 -6.4375 5.070312 -6.5 4.71875 -6.5 C 4.351562 -6.5 4.019531 -6.4375 3.71875 -6.3125 C 3.425781 -6.195312 3.171875 -6.03125 2.953125 -5.8125 C 2.734375 -5.59375 2.5625 -5.328125 2.4375 -5.015625 C 2.320312 -4.703125 2.265625 -4.351562 2.265625 -3.96875 C 2.265625 -3.59375 2.328125 -3.25 2.453125 -2.9375 C 2.578125 -2.625 2.742188 -2.359375 2.953125 -2.140625 C 3.171875 -1.921875 3.429688 -1.75 3.734375 -1.625 C 4.035156 -1.507812 4.363281 -1.453125 4.71875 -1.453125 Z M 4.71875 -1.453125 "/></g></g></g><g fill="#ffffff" fill-opacity="1"><g transform="translate(113.607667, 11.260207)"><g><path d="M 4.71875 0.203125 C 4.09375 0.203125 3.519531 0.101562 3 -0.09375 C 2.476562 -0.289062 2.023438 -0.570312 1.640625 -0.9375 C 1.265625 -1.300781 0.972656 -1.738281 0.765625 -2.25 C 0.554688 -2.769531 0.453125 -3.34375 0.453125 -3.96875 C 0.453125 -4.601562 0.554688 -5.175781 0.765625 -5.6875 C 0.972656 -6.195312 1.265625 -6.632812 1.640625 -7 C 2.023438 -7.375 2.476562 -7.65625 3 -7.84375 C 3.519531 -8.039062 4.09375 -8.140625 4.71875 -8.140625 C 5.414062 -8.140625 6.046875 -8.015625 6.609375 -7.765625 C 7.179688 -7.523438 7.65625 -7.179688 8.03125 -6.734375 C 8.125 -6.628906 8.109375 -6.535156 7.984375 -6.453125 L 6.859375 -5.671875 C 6.742188 -5.597656 6.644531 -5.613281 6.5625 -5.71875 C 6.34375 -5.957031 6.078125 -6.144531 5.765625 -6.28125 C 5.453125 -6.425781 5.101562 -6.5 4.71875 -6.5 C 4.351562 -6.5 4.019531 -6.4375 3.71875 -6.3125 C 3.425781 -6.195312 3.171875 -6.03125 2.953125 -5.8125 C 2.734375 -5.59375 2.5625 -5.328125 2.4375 -5.015625 C 2.320312 -4.703125 2.265625 -4.351562 2.265625 -3.96875 C 2.265625 -3.570312 2.328125 -3.210938 2.453125 -2.890625 C 2.578125 -2.578125 2.742188 -2.304688 2.953125 -2.078125 C 3.171875 -1.847656 3.429688 -1.671875 3.734375 -1.546875 C 4.035156 -1.421875 4.363281 -1.359375 4.71875 -1.359375 C 5.082031 -1.359375 5.414062 -1.421875 5.71875 -1.546875 C 6.03125 -1.679688 6.289062 -1.863281 6.5 -2.09375 L 6.5 -2.671875 L 4.953125 -2.671875 C 4.804688 -2.671875 4.734375 -2.742188 4.734375 -2.890625 L 4.734375 -3.953125 C 4.734375 -4.085938 4.804688 -4.15625 4.953125 -4.15625 L 7.953125 -4.15625 C 8.085938 -4.15625 8.15625 -4.085938 8.15625 -3.953125 L 8.15625 -1.515625 C 8.15625 -1.410156 8.128906 -1.328125 8.078125 -1.265625 C 7.710938 -0.796875 7.238281 -0.429688 6.65625 -0.171875 C 6.082031 0.078125 5.4375 0.203125 4.71875 0.203125 Z M 4.71875 0.203125 "/></g></g></g><g fill="#ffffff" fill-opacity="1"><g transform="translate(130.803117, 11.260207)"><g><path d="M 2.375 0 L 1 0 C 0.851562 0 0.78125 -0.0703125 0.78125 -0.21875 L 0.78125 -7.734375 C 0.78125 -7.878906 0.851562 -7.953125 1 -7.953125 L 2.375 -7.953125 C 2.519531 -7.953125 2.59375 -7.878906 2.59375 -7.734375 L 2.59375 -0.21875 C 2.59375 -0.0703125 2.519531 0 2.375 0 Z M 2.375 0 "/></g></g></g><g fill="#ffffff" fill-opacity="1"><g transform="translate(142.650267, 11.260207)"><g><path d="M 4.234375 -7.953125 L 7.78125 -0.25 C 7.8125 -0.175781 7.8125 -0.113281 7.78125 -0.0625 C 7.75 -0.0195312 7.691406 0 7.609375 0 L 6.09375 0 C 5.96875 0 5.882812 -0.0546875 5.84375 -0.171875 L 5.5 -1.046875 L 2.4375 -1.046875 L 2.09375 -0.171875 C 2.050781 -0.0546875 1.96875 0 1.84375 0 L 0.328125 0 C 0.242188 0 0.1875 -0.0195312 0.15625 -0.0625 C 0.125 -0.113281 0.128906 -0.175781 0.171875 -0.25 L 3.703125 -7.953125 C 3.773438 -8.097656 3.863281 -8.171875 3.96875 -8.171875 C 4.070312 -8.171875 4.160156 -8.097656 4.234375 -7.953125 Z M 3.96875 -4.890625 L 3 -2.4375 L 4.9375 -2.4375 Z M 3.96875 -4.890625 "/></g></g></g></g></g></svg>