<svg xmlns="http://www.w3.org/2000/svg" xmlns:xlink="http://www.w3.org/1999/xlink" width="512" zoomAndPan="magnify" viewBox="0 0 384 383.999986" height="512" preserveAspectRatio="xMidYMid meet" version="1.0"><defs><g/><clipPath id="a0b088826e"><path d="M 0 0 L 384 0 L 384 383.25 L 0 383.25 Z M 0 0 " clip-rule="nonzero"/></clipPath><clipPath id="be425db065"><path d="M 0 119 L 140 119 L 140 383.25 L 0 383.25 Z M 0 119 " clip-rule="nonzero"/></clipPath></defs><path fill="#ff751f" d="M 8.050781 8.164062 L 375.949219 376.027344 " fill-opacity="1" fill-rule="nonzero"/><g clip-path="url(#a0b088826e)"><path fill="#ff751f" d="M 375.949219 383.34375 C 374.078125 383.34375 372.203125 382.628906 370.773438 381.203125 L 2.867188 13.339844 C 0.0117188 10.480469 0.0117188 5.847656 2.867188 2.984375 C 5.726562 0.125 10.363281 0.125 13.226562 2.984375 L 381.132812 370.84375 C 383.988281 373.703125 383.988281 378.339844 381.132812 381.195312 C 379.703125 382.628906 377.824219 383.34375 375.949219 383.34375 Z M 375.949219 383.34375 " fill-opacity="1" fill-rule="nonzero"/></g><g clip-path="url(#be425db065)"><path fill="#ff751f" d="M 8.050781 383.34375 C 8.042969 383.34375 8.042969 383.34375 8.050781 383.34375 C 4 383.34375 0.726562 380.0625 0.726562 376.019531 L 0.804688 130.179688 C 0.804688 125.953125 3.328125 122.175781 7.238281 120.554688 C 11.144531 118.933594 15.605469 119.824219 18.59375 122.8125 L 137.667969 240.882812 C 140.539062 243.726562 140.5625 248.363281 137.710938 251.234375 C 134.867188 254.109375 130.230469 254.125 127.355469 251.273438 L 15.441406 140.3125 L 15.367188 376.019531 C 15.367188 380.070312 12.085938 383.34375 8.050781 383.34375 Z M 8.257812 133.1875 C 8.261719 133.195312 8.273438 133.207031 8.28125 133.210938 Z M 8.257812 133.1875 " fill-opacity="1" fill-rule="nonzero"/></g><path fill="#ff751f" d="M 375.949219 253.40625 C 371.90625 253.40625 368.632812 250.132812 368.625 246.085938 L 368.554688 21.367188 L 241.996094 146.964844 C 239.132812 149.816406 234.496094 149.796875 231.648438 146.929688 C 228.796875 144.058594 228.8125 139.421875 231.683594 136.578125 L 365.429688 3.835938 C 368.402344 0.863281 372.855469 -0.0195312 376.761719 1.597656 C 380.671875 3.210938 383.195312 6.988281 383.195312 11.222656 L 383.273438 246.082031 C 383.273438 250.125 380 253.398438 375.949219 253.40625 Z M 375.761719 14.203125 L 375.738281 14.230469 C 375.75 14.222656 375.753906 14.21875 375.761719 14.203125 Z M 375.761719 14.203125 " fill-opacity="1" fill-rule="nonzero"/><g fill="#ff751f" fill-opacity="1"><g transform="translate(303.150072, 308.883727)"><g><path d="M 1.1875 -0.828125 C 1.1875 -1.179688 1.265625 -1.445312 1.421875 -1.625 C 1.585938 -1.800781 1.816406 -1.890625 2.109375 -1.890625 C 2.410156 -1.890625 2.644531 -1.800781 2.8125 -1.625 C 2.988281 -1.445312 3.078125 -1.179688 3.078125 -0.828125 C 3.078125 -0.492188 2.988281 -0.234375 2.8125 -0.046875 C 2.644531 0.140625 2.410156 0.234375 2.109375 0.234375 C 1.847656 0.234375 1.628906 0.148438 1.453125 -0.015625 C 1.273438 -0.179688 1.1875 -0.453125 1.1875 -0.828125 Z M 1.1875 -0.828125 "/></g></g></g></svg>