<svg width="400" height="250" xmlns="http://www.w3.org/2000/svg">
  <defs>
    <linearGradient id="grad3" x1="0%" y1="0%" x2="100%" y2="100%">
      <stop offset="0%" style="stop-color:#0078D4;stop-opacity:1" />
      <stop offset="100%" style="stop-color:#106EBE;stop-opacity:1" />
    </linearGradient>
  </defs>
  <rect width="100%" height="100%" fill="url(#grad3)"/>
  
  <!-- Grid do Office 365 -->
  <rect x="80" y="50" width="60" height="60" rx="8" fill="rgba(255,255,255,0.15)" stroke="white" stroke-width="1"/>
  <rect x="160" y="50" width="60" height="60" rx="8" fill="rgba(255,255,255,0.15)" stroke="white" stroke-width="1"/>
  <rect x="240" y="50" width="60" height="60" rx="8" fill="rgba(255,255,255,0.15)" stroke="white" stroke-width="1"/>
  <rect x="80" y="130" width="60" height="60" rx="8" fill="rgba(255,255,255,0.15)" stroke="white" stroke-width="1"/>
  <rect x="160" y="130" width="60" height="60" rx="8" fill="rgba(255,255,255,0.15)" stroke="white" stroke-width="1"/>
  <rect x="240" y="130" width="60" height="60" rx="8" fill="rgba(255,255,255,0.15)" stroke="white" stroke-width="1"/>
  
  <!-- Ãcones dos apps -->
  <rect x="90" y="65" width="40" height="30" rx="4" fill="white"/>
  <rect x="95" y="70" width="30" height="3" rx="1" fill="#0078D4"/>
  <rect x="95" y="77" width="20" height="2" rx="1" fill="#0078D4"/>
  <rect x="95" y="82" width="25" height="2" rx="1" fill="#0078D4"/>
  
  <!-- Teams icon -->
  <circle cx="190" cy="80" r="15" fill="white"/>
  <rect x="185" y="75" width="10" height="8" rx="2" fill="#0078D4"/>
  <circle cx="185" cy="72" r="2" fill="#0078D4"/>
  <circle cx="195" cy="72" r="2" fill="#0078D4"/>
  
  <!-- Excel icon -->
  <rect x="250" y="65" width="40" height="30" rx="4" fill="white"/>
  <rect x="255" y="70" width="8" height="8" fill="#107C41"/>
  <rect x="267" y="70" width="8" height="8" fill="#107C41"/>
  <rect x="279" y="70" width="8" height="8" fill="#107C41"/>
  <rect x="255" y="82" width="8" height="8" fill="#107C41"/>
  <rect x="267" y="82" width="8" height="8" fill="#107C41"/>
  <rect x="279" y="82" width="8" height="8" fill="#107C41"/>
  
  <!-- Texto -->
  <text x="50%" y="220" font-family="Arial, sans-serif" font-size="20" font-weight="bold" fill="white" text-anchor="middle">
    Microsoft 365
  </text>
  <text x="50%" y="240" font-family="Arial, sans-serif" font-size="14" fill="rgba(255,255,255,0.9)" text-anchor="middle">
    Maximizando a produtividade empresarial
  </text>
</svg>
