<svg width="400" height="250" xmlns="http://www.w3.org/2000/svg">
  <defs>
    <linearGradient id="grad2" x1="0%" y1="0%" x2="100%" y2="100%">
      <stop offset="0%" style="stop-color:#1E40AF;stop-opacity:1" />
      <stop offset="100%" style="stop-color:#3B82F6;stop-opacity:1" />
    </linearGradient>
  </defs>
  <rect width="100%" height="100%" fill="url(#grad2)"/>
  
  <!-- Escudo de segurança -->
  <path d="M200 50 L180 60 L180 90 Q180 110 200 120 Q220 110 220 90 L220 60 Z" fill="rgba(255,255,255,0.2)" stroke="white" stroke-width="2"/>
  <path d="M200 65 L190 70 L190 85 Q190 95 200 100 Q210 95 210 85 L210 70 Z" fill="white"/>
  
  <!-- Cadeado -->
  <rect x="195" y="78" width="10" height="12" rx="1" fill="#1E40AF"/>
  <circle cx="200" cy="75" r="3" fill="none" stroke="#1E40AF" stroke-width="2"/>
  
  <!-- Pontos de conexão -->
  <circle cx="120" cy="80" r="4" fill="white" opacity="0.7"/>
  <circle cx="280" cy="80" r="4" fill="white" opacity="0.7"/>
  <circle cx="160" cy="120" r="4" fill="white" opacity="0.7"/>
  <circle cx="240" cy="120" r="4" fill="white" opacity="0.7"/>
  
  <!-- Linhas de conexão -->
  <line x1="124" y1="80" x2="176" y2="80" stroke="white" stroke-width="2" opacity="0.5"/>
  <line x1="224" y1="80" x2="276" y2="80" stroke="white" stroke-width="2" opacity="0.5"/>
  <line x1="164" y1="120" x2="236" y2="120" stroke="white" stroke-width="2" opacity="0.5"/>
  
  <!-- Texto -->
  <text x="50%" y="170" font-family="Arial, sans-serif" font-size="20" font-weight="bold" fill="white" text-anchor="middle">
    Segurança TI
  </text>
  <text x="50%" y="190" font-family="Arial, sans-serif" font-size="14" fill="rgba(255,255,255,0.9)" text-anchor="middle">
    10 práticas essenciais para PMEs
  </text>
</svg>
